<svg width="100" height="100" viewBox="0 0 100 100" xmlns="http://www.w3.org/2000/svg">
  <defs>
    <g id="islamic-star">
      <path d="M50,10 L60,40 L90,40 L65,55 L75,85 L50,65 L25,85 L35,55 L10,40 L40,40 Z" 
            fill="none" 
            stroke="currentColor" 
            stroke-width="0.5" 
            opacity="0.3"/>
    </g>
    <g id="islamic-octagon">
      <polygon points="30,10 70,10 90,30 90,70 70,90 30,90 10,70 10,30" 
               fill="none" 
               stroke="currentColor" 
               stroke-width="0.5" 
               opacity="0.2"/>
    </g>
  </defs>
  
  <!-- Central star -->
  <use href="#islamic-star" x="0" y="0"/>
  
  <!-- Corner decorations -->
  <circle cx="20" cy="20" r="5" fill="none" stroke="currentColor" stroke-width="0.5" opacity="0.3"/>
  <circle cx="80" cy="20" r="5" fill="none" stroke="currentColor" stroke-width="0.5" opacity="0.3"/>
  <circle cx="20" cy="80" r="5" fill="none" stroke="currentColor" stroke-width="0.5" opacity="0.3"/>
  <circle cx="80" cy="80" r="5" fill="none" stroke="currentColor" stroke-width="0.5" opacity="0.3"/>
  
  <!-- Connecting lines -->
  <line x1="0" y1="50" x2="100" y2="50" stroke="currentColor" stroke-width="0.3" opacity="0.2"/>
  <line x1="50" y1="0" x2="50" y2="100" stroke="currentColor" stroke-width="0.3" opacity="0.2"/>
  <line x1="0" y1="0" x2="100" y2="100" stroke="currentColor" stroke-width="0.3" opacity="0.2"/>
  <line x1="100" y1="0" x2="0" y2="100" stroke="currentColor" stroke-width="0.3" opacity="0.2"/>
  
  <!-- Octagonal frame -->
  <use href="#islamic-octagon" x="0" y="0"/>
  
  <!-- Additional geometric elements -->
  <g transform="rotate(45 50 50)">
    <rect x="40" y="40" width="20" height="20" 
          fill="none" 
          stroke="currentColor" 
          stroke-width="0.5" 
          opacity="0.2"/>
  </g>
</svg>